<svg xmlns="http://www.w3.org/2000/svg" viewBox="0 0 16 14" width="16" height="14" shape-rendering="crispEdges" aria-hidden="true"><rect x="7" y="0" width="3" height="1" fill="#1b1424"/><rect x="5" y="1" width="2" height="1" fill="#1b1424"/><rect x="7" y="1" width="3" height="1" fill="#e8c78f"/><rect x="10" y="1" width="2" height="1" fill="#1b1424"/><rect x="4" y="2" width="1" height="1" fill="#1b1424"/><rect x="5" y="2" width="7" height="1" fill="#e8c78f"/><rect x="12" y="2" width="1" height="1" fill="#1b1424"/><rect x="3" y="3" width="1" height="1" fill="#1b1424"/><rect x="4" y="3" width="3" height="1" fill="#e8c78f"/><rect x="7" y="3" width="3" height="1" fill="#ff3b3b"/><rect x="10" y="3" width="3" height="1" fill="#e8c78f"/><rect x="13" y="3" width="1" height="1" fill="#1b1424"/><rect x="2" y="4" width="1" height="1" fill="#1b1424"/><rect x="3" y="4" width="3" height="1" fill="#e8c78f"/><rect x="6" y="4" width="5" height="1" fill="#ff3b3b"/><rect x="11" y="4" width="3" height="1" fill="#e8c78f"/><rect x="14" y="4" width="1" height="1" fill="#1b1424"/><rect x="2" y="5" width="1" height="1" fill="#1b1424"/><rect x="3" y="5" width="2" height="1" fill="#e8c78f"/><rect x="5" y="5" width="2" height="1" fill="#ff3b3b"/><rect x="7" y="5" width="1" height="1" fill="#ff9ec8"/><rect x="8" y="5" width="4" height="1" fill="#ff3b3b"/><rect x="12" y="5" width="2" height="1" fill="#e8c78f"/><rect x="14" y="5" width="1" height="1" fill="#1b1424"/><rect x="1" y="6" width="1" height="1" fill="#1b1424"/><rect x="2" y="6" width="3" height="1" fill="#e8c78f"/><rect x="5" y="6" width="7" height="1" fill="#ff3b3b"/><rect x="12" y="6" width="3" height="1" fill="#e8c78f"/><rect x="15" y="6" width="1" height="1" fill="#1b1424"/><rect x="1" y="7" width="1" height="1" fill="#1b1424"/><rect x="2" y="7" width="3" height="1" fill="#e8c78f"/><rect x="5" y="7" width="7" height="1" fill="#ff3b3b"/><rect x="12" y="7" width="3" height="1" fill="#e8c78f"/><rect x="15" y="7" width="1" height="1" fill="#1b1424"/><rect x="1" y="8" width="1" height="1" fill="#1b1424"/><rect x="2" y="8" width="4" height="1" fill="#e8c78f"/><rect x="6" y="8" width="5" height="1" fill="#ff3b3b"/><rect x="11" y="8" width="4" height="1" fill="#e8c78f"/><rect x="15" y="8" width="1" height="1" fill="#1b1424"/><rect x="2" y="9" width="1" height="1" fill="#1b1424"/><rect x="3" y="9" width="4" height="1" fill="#e8c78f"/><rect x="7" y="9" width="3" height="1" fill="#ff3b3b"/><rect x="10" y="9" width="4" height="1" fill="#e8c78f"/><rect x="14" y="9" width="1" height="1" fill="#1b1424"/><rect x="2" y="10" width="1" height="1" fill="#1b1424"/><rect x="3" y="10" width="11" height="1" fill="#e8c78f"/><rect x="14" y="10" width="1" height="1" fill="#1b1424"/><rect x="1" y="11" width="1" height="1" fill="#1b1424"/><rect x="2" y="11" width="12" height="1" fill="#c79a55"/><rect x="14" y="11" width="1" height="1" fill="#1b1424"/><rect x="2" y="12" width="3" height="1" fill="#1b1424"/><rect x="5" y="12" width="7" height="1" fill="#e8c78f"/><rect x="12" y="12" width="2" height="1" fill="#1b1424"/><rect x="5" y="13" width="2" height="1" fill="#1b1424"/><rect x="7" y="13" width="3" height="1" fill="#e8c78f"/><rect x="10" y="13" width="2" height="1" fill="#1b1424"/></svg>
