<svg xmlns="http://www.w3.org/2000/svg" viewBox="0 0 26 50" width="26" height="50" shape-rendering="crispEdges" aria-hidden="true"><rect x="12" y="0" width="2" height="1" fill="#1b1424"/><rect x="11" y="1" width="1" height="1" fill="#1b1424"/><rect x="12" y="1" width="1" height="1" fill="#ff9ec8"/><rect x="13" y="1" width="1" height="1" fill="#ffe36e"/><rect x="14" y="1" width="1" height="1" fill="#1b1424"/><rect x="10" y="2" width="1" height="1" fill="#1b1424"/><rect x="11" y="2" width="4" height="1" fill="#4f9b3a"/><rect x="15" y="2" width="1" height="1" fill="#1b1424"/><rect x="10" y="3" width="1" height="1" fill="#1b1424"/><rect x="11" y="3" width="4" height="1" fill="#4f9b3a"/><rect x="15" y="3" width="1" height="1" fill="#1b1424"/><rect x="9" y="4" width="1" height="1" fill="#1b1424"/><rect x="10" y="4" width="2" height="1" fill="#4f9b3a"/><rect x="12" y="4" width="1" height="1" fill="#8fcf5a"/><rect x="13" y="4" width="2" height="1" fill="#4f9b3a"/><rect x="15" y="4" width="1" height="1" fill="#2f6b25"/><rect x="16" y="4" width="1" height="1" fill="#1b1424"/><rect x="9" y="5" width="1" height="1" fill="#1b1424"/><rect x="10" y="5" width="2" height="1" fill="#4f9b3a"/><rect x="12" y="5" width="1" height="1" fill="#8fcf5a"/><rect x="13" y="5" width="2" height="1" fill="#4f9b3a"/><rect x="15" y="5" width="1" height="1" fill="#2f6b25"/><rect x="16" y="5" width="1" height="1" fill="#1b1424"/><rect x="9" y="6" width="1" height="1" fill="#1b1424"/><rect x="10" y="6" width="2" height="1" fill="#4f9b3a"/><rect x="12" y="6" width="1" height="1" fill="#8fcf5a"/><rect x="13" y="6" width="2" height="1" fill="#4f9b3a"/><rect x="15" y="6" width="1" height="1" fill="#2f6b25"/><rect x="16" y="6" width="1" height="1" fill="#1b1424"/><rect x="5" y="7" width="2" height="1" fill="#1b1424"/><rect x="9" y="7" width="1" height="1" fill="#1b1424"/><rect x="10" y="7" width="2" height="1" fill="#4f9b3a"/><rect x="12" y="7" width="1" height="1" fill="#8fcf5a"/><rect x="13" y="7" width="2" height="1" fill="#4f9b3a"/><rect x="15" y="7" width="1" height="1" fill="#2f6b25"/><rect x="16" y="7" width="1" height="1" fill="#1b1424"/><rect x="4" y="8" width="1" height="1" fill="#1b1424"/><rect x="5" y="8" width="2" height="1" fill="#4f9b3a"/><rect x="7" y="8" width="1" height="1" fill="#1b1424"/><rect x="9" y="8" width="1" height="1" fill="#1b1424"/><rect x="10" y="8" width="2" height="1" fill="#4f9b3a"/><rect x="12" y="8" width="1" height="1" fill="#8fcf5a"/><rect x="13" y="8" width="2" height="1" fill="#4f9b3a"/><rect x="15" y="8" width="1" height="1" fill="#2f6b25"/><rect x="16" y="8" width="1" height="1" fill="#1b1424"/><rect x="4" y="9" width="1" height="1" fill="#1b1424"/><rect x="5" y="9" width="2" height="1" fill="#4f9b3a"/><rect x="7" y="9" width="1" height="1" fill="#1b1424"/><rect x="9" y="9" width="1" height="1" fill="#1b1424"/><rect x="10" y="9" width="2" height="1" fill="#4f9b3a"/><rect x="12" y="9" width="1" height="1" fill="#8fcf5a"/><rect x="13" y="9" width="2" height="1" fill="#4f9b3a"/><rect x="15" y="9" width="1" height="1" fill="#2f6b25"/><rect x="16" y="9" width="1" height="1" fill="#1b1424"/><rect x="3" y="10" width="1" height="1" fill="#1b1424"/><rect x="4" y="10" width="1" height="1" fill="#4f9b3a"/><rect x="5" y="10" width="1" height="1" fill="#8fcf5a"/><rect x="6" y="10" width="2" height="1" fill="#4f9b3a"/><rect x="8" y="10" width="2" height="1" fill="#1b1424"/><rect x="10" y="10" width="2" height="1" fill="#4f9b3a"/><rect x="12" y="10" width="1" height="1" fill="#8fcf5a"/><rect x="13" y="10" width="2" height="1" fill="#4f9b3a"/><rect x="15" y="10" width="1" height="1" fill="#2f6b25"/><rect x="16" y="10" width="1" height="1" fill="#1b1424"/><rect x="3" y="11" width="1" height="1" fill="#1b1424"/><rect x="4" y="11" width="1" height="1" fill="#4f9b3a"/><rect x="5" y="11" width="1" height="1" fill="#8fcf5a"/><rect x="6" y="11" width="2" height="1" fill="#4f9b3a"/><rect x="8" y="11" width="2" height="1" fill="#1b1424"/><rect x="10" y="11" width="2" height="1" fill="#4f9b3a"/><rect x="12" y="11" width="1" height="1" fill="#8fcf5a"/><rect x="13" y="11" width="2" height="1" fill="#4f9b3a"/><rect x="15" y="11" width="1" height="1" fill="#2f6b25"/><rect x="16" y="11" width="1" height="1" fill="#1b1424"/><rect x="3" y="12" width="1" height="1" fill="#1b1424"/><rect x="4" y="12" width="1" height="1" fill="#4f9b3a"/><rect x="5" y="12" width="1" height="1" fill="#8fcf5a"/><rect x="6" y="12" width="2" height="1" fill="#4f9b3a"/><rect x="8" y="12" width="2" height="1" fill="#1b1424"/><rect x="10" y="12" width="2" height="1" fill="#4f9b3a"/><rect x="12" y="12" width="1" height="1" fill="#8fcf5a"/><rect x="13" y="12" width="2" height="1" fill="#4f9b3a"/><rect x="15" y="12" width="1" height="1" fill="#2f6b25"/><rect x="16" y="12" width="1" height="1" fill="#1b1424"/><rect x="3" y="13" width="1" height="1" fill="#1b1424"/><rect x="4" y="13" width="1" height="1" fill="#4f9b3a"/><rect x="5" y="13" width="1" height="1" fill="#8fcf5a"/><rect x="6" y="13" width="2" height="1" fill="#4f9b3a"/><rect x="8" y="13" width="2" height="1" fill="#1b1424"/><rect x="10" y="13" width="2" height="1" fill="#4f9b3a"/><rect x="12" y="13" width="1" height="1" fill="#8fcf5a"/><rect x="13" y="13" width="2" height="1" fill="#4f9b3a"/><rect x="15" y="13" width="1" height="1" fill="#2f6b25"/><rect x="16" y="13" width="1" height="1" fill="#1b1424"/><rect x="19" y="13" width="2" height="1" fill="#1b1424"/><rect x="3" y="14" width="1" height="1" fill="#1b1424"/><rect x="4" y="14" width="1" height="1" fill="#4f9b3a"/><rect x="5" y="14" width="1" height="1" fill="#8fcf5a"/><rect x="6" y="14" width="2" height="1" fill="#4f9b3a"/><rect x="8" y="14" width="2" height="1" fill="#1b1424"/><rect x="10" y="14" width="2" height="1" fill="#4f9b3a"/><rect x="12" y="14" width="1" height="1" fill="#8fcf5a"/><rect x="13" y="14" width="2" height="1" fill="#4f9b3a"/><rect x="15" y="14" width="1" height="1" fill="#2f6b25"/><rect x="16" y="14" width="1" height="1" fill="#1b1424"/><rect x="18" y="14" width="1" height="1" fill="#1b1424"/><rect x="19" y="14" width="2" height="1" fill="#4f9b3a"/><rect x="21" y="14" width="1" height="1" fill="#1b1424"/><rect x="3" y="15" width="1" height="1" fill="#1b1424"/><rect x="4" y="15" width="1" height="1" fill="#4f9b3a"/><rect x="5" y="15" width="1" height="1" fill="#8fcf5a"/><rect x="6" y="15" width="2" height="1" fill="#4f9b3a"/><rect x="8" y="15" width="2" height="1" fill="#1b1424"/><rect x="10" y="15" width="2" height="1" fill="#4f9b3a"/><rect x="12" y="15" width="1" height="1" fill="#8fcf5a"/><rect x="13" y="15" width="2" height="1" fill="#4f9b3a"/><rect x="15" y="15" width="1" height="1" fill="#2f6b25"/><rect x="16" y="15" width="1" height="1" fill="#1b1424"/><rect x="18" y="15" width="1" height="1" fill="#1b1424"/><rect x="19" y="15" width="2" height="1" fill="#4f9b3a"/><rect x="21" y="15" width="1" height="1" fill="#1b1424"/><rect x="3" y="16" width="1" height="1" fill="#1b1424"/><rect x="4" y="16" width="1" height="1" fill="#4f9b3a"/><rect x="5" y="16" width="1" height="1" fill="#8fcf5a"/><rect x="6" y="16" width="2" height="1" fill="#4f9b3a"/><rect x="8" y="16" width="2" height="1" fill="#1b1424"/><rect x="10" y="16" width="2" height="1" fill="#4f9b3a"/><rect x="12" y="16" width="1" height="1" fill="#8fcf5a"/><rect x="13" y="16" width="2" height="1" fill="#4f9b3a"/><rect x="15" y="16" width="1" height="1" fill="#2f6b25"/><rect x="16" y="16" width="2" height="1" fill="#1b1424"/><rect x="18" y="16" width="3" height="1" fill="#4f9b3a"/><rect x="21" y="16" width="1" height="1" fill="#2f6b25"/><rect x="22" y="16" width="1" height="1" fill="#1b1424"/><rect x="3" y="17" width="1" height="1" fill="#1b1424"/><rect x="4" y="17" width="1" height="1" fill="#4f9b3a"/><rect x="5" y="17" width="1" height="1" fill="#8fcf5a"/><rect x="6" y="17" width="2" height="1" fill="#4f9b3a"/><rect x="8" y="17" width="2" height="1" fill="#1b1424"/><rect x="10" y="17" width="2" height="1" fill="#4f9b3a"/><rect x="12" y="17" width="1" height="1" fill="#8fcf5a"/><rect x="13" y="17" width="2" height="1" fill="#4f9b3a"/><rect x="15" y="17" width="1" height="1" fill="#2f6b25"/><rect x="16" y="17" width="2" height="1" fill="#1b1424"/><rect x="18" y="17" width="3" height="1" fill="#4f9b3a"/><rect x="21" y="17" width="1" height="1" fill="#2f6b25"/><rect x="22" y="17" width="1" height="1" fill="#1b1424"/><rect x="3" y="18" width="1" height="1" fill="#1b1424"/><rect x="4" y="18" width="1" height="1" fill="#4f9b3a"/><rect x="5" y="18" width="1" height="1" fill="#8fcf5a"/><rect x="6" y="18" width="2" height="1" fill="#4f9b3a"/><rect x="8" y="18" width="2" height="1" fill="#1b1424"/><rect x="10" y="18" width="2" height="1" fill="#4f9b3a"/><rect x="12" y="18" width="1" height="1" fill="#8fcf5a"/><rect x="13" y="18" width="2" height="1" fill="#4f9b3a"/><rect x="15" y="18" width="1" height="1" fill="#2f6b25"/><rect x="16" y="18" width="2" height="1" fill="#1b1424"/><rect x="18" y="18" width="3" height="1" fill="#4f9b3a"/><rect x="21" y="18" width="1" height="1" fill="#2f6b25"/><rect x="22" y="18" width="1" height="1" fill="#1b1424"/><rect x="3" y="19" width="1" height="1" fill="#1b1424"/><rect x="4" y="19" width="1" height="1" fill="#4f9b3a"/><rect x="5" y="19" width="1" height="1" fill="#8fcf5a"/><rect x="6" y="19" width="2" height="1" fill="#4f9b3a"/><rect x="8" y="19" width="2" height="1" fill="#1b1424"/><rect x="10" y="19" width="2" height="1" fill="#4f9b3a"/><rect x="12" y="19" width="1" height="1" fill="#8fcf5a"/><rect x="13" y="19" width="2" height="1" fill="#4f9b3a"/><rect x="15" y="19" width="1" height="1" fill="#2f6b25"/><rect x="16" y="19" width="2" height="1" fill="#1b1424"/><rect x="18" y="19" width="3" height="1" fill="#4f9b3a"/><rect x="21" y="19" width="1" height="1" fill="#2f6b25"/><rect x="22" y="19" width="1" height="1" fill="#1b1424"/><rect x="3" y="20" width="1" height="1" fill="#1b1424"/><rect x="4" y="20" width="1" height="1" fill="#4f9b3a"/><rect x="5" y="20" width="1" height="1" fill="#8fcf5a"/><rect x="6" y="20" width="2" height="1" fill="#4f9b3a"/><rect x="8" y="20" width="2" height="1" fill="#1b1424"/><rect x="10" y="20" width="2" height="1" fill="#4f9b3a"/><rect x="12" y="20" width="1" height="1" fill="#8fcf5a"/><rect x="13" y="20" width="2" height="1" fill="#4f9b3a"/><rect x="15" y="20" width="1" height="1" fill="#2f6b25"/><rect x="16" y="20" width="2" height="1" fill="#1b1424"/><rect x="18" y="20" width="3" height="1" fill="#4f9b3a"/><rect x="21" y="20" width="1" height="1" fill="#2f6b25"/><rect x="22" y="20" width="1" height="1" fill="#1b1424"/><rect x="3" y="21" width="1" height="1" fill="#1b1424"/><rect x="4" y="21" width="1" height="1" fill="#4f9b3a"/><rect x="5" y="21" width="1" height="1" fill="#8fcf5a"/><rect x="6" y="21" width="2" height="1" fill="#4f9b3a"/><rect x="8" y="21" width="2" height="1" fill="#1b1424"/><rect x="10" y="21" width="2" height="1" fill="#4f9b3a"/><rect x="12" y="21" width="1" height="1" fill="#8fcf5a"/><rect x="13" y="21" width="2" height="1" fill="#4f9b3a"/><rect x="15" y="21" width="1" height="1" fill="#2f6b25"/><rect x="16" y="21" width="2" height="1" fill="#1b1424"/><rect x="18" y="21" width="3" height="1" fill="#4f9b3a"/><rect x="21" y="21" width="1" height="1" fill="#2f6b25"/><rect x="22" y="21" width="1" height="1" fill="#1b1424"/><rect x="3" y="22" width="1" height="1" fill="#1b1424"/><rect x="4" y="22" width="1" height="1" fill="#4f9b3a"/><rect x="5" y="22" width="1" height="1" fill="#8fcf5a"/><rect x="6" y="22" width="6" height="1" fill="#4f9b3a"/><rect x="12" y="22" width="1" height="1" fill="#8fcf5a"/><rect x="13" y="22" width="2" height="1" fill="#4f9b3a"/><rect x="15" y="22" width="1" height="1" fill="#2f6b25"/><rect x="16" y="22" width="2" height="1" fill="#1b1424"/><rect x="18" y="22" width="3" height="1" fill="#4f9b3a"/><rect x="21" y="22" width="1" height="1" fill="#2f6b25"/><rect x="22" y="22" width="1" height="1" fill="#1b1424"/><rect x="3" y="23" width="1" height="1" fill="#1b1424"/><rect x="4" y="23" width="1" height="1" fill="#4f9b3a"/><rect x="5" y="23" width="1" height="1" fill="#8fcf5a"/><rect x="6" y="23" width="6" height="1" fill="#4f9b3a"/><rect x="12" y="23" width="1" height="1" fill="#8fcf5a"/><rect x="13" y="23" width="2" height="1" fill="#4f9b3a"/><rect x="15" y="23" width="1" height="1" fill="#2f6b25"/><rect x="16" y="23" width="2" height="1" fill="#1b1424"/><rect x="18" y="23" width="3" height="1" fill="#4f9b3a"/><rect x="21" y="23" width="1" height="1" fill="#2f6b25"/><rect x="22" y="23" width="1" height="1" fill="#1b1424"/><rect x="3" y="24" width="1" height="1" fill="#1b1424"/><rect x="4" y="24" width="8" height="1" fill="#4f9b3a"/><rect x="12" y="24" width="1" height="1" fill="#8fcf5a"/><rect x="13" y="24" width="2" height="1" fill="#4f9b3a"/><rect x="15" y="24" width="1" height="1" fill="#2f6b25"/><rect x="16" y="24" width="2" height="1" fill="#1b1424"/><rect x="18" y="24" width="3" height="1" fill="#4f9b3a"/><rect x="21" y="24" width="1" height="1" fill="#2f6b25"/><rect x="22" y="24" width="1" height="1" fill="#1b1424"/><rect x="3" y="25" width="1" height="1" fill="#1b1424"/><rect x="4" y="25" width="8" height="1" fill="#4f9b3a"/><rect x="12" y="25" width="1" height="1" fill="#8fcf5a"/><rect x="13" y="25" width="2" height="1" fill="#4f9b3a"/><rect x="15" y="25" width="1" height="1" fill="#2f6b25"/><rect x="16" y="25" width="2" height="1" fill="#1b1424"/><rect x="18" y="25" width="3" height="1" fill="#4f9b3a"/><rect x="21" y="25" width="1" height="1" fill="#2f6b25"/><rect x="22" y="25" width="1" height="1" fill="#1b1424"/><rect x="4" y="26" width="6" height="1" fill="#1b1424"/><rect x="10" y="26" width="2" height="1" fill="#4f9b3a"/><rect x="12" y="26" width="1" height="1" fill="#8fcf5a"/><rect x="13" y="26" width="2" height="1" fill="#4f9b3a"/><rect x="15" y="26" width="1" height="1" fill="#2f6b25"/><rect x="16" y="26" width="2" height="1" fill="#1b1424"/><rect x="18" y="26" width="3" height="1" fill="#4f9b3a"/><rect x="21" y="26" width="1" height="1" fill="#2f6b25"/><rect x="22" y="26" width="1" height="1" fill="#1b1424"/><rect x="9" y="27" width="1" height="1" fill="#1b1424"/><rect x="10" y="27" width="2" height="1" fill="#4f9b3a"/><rect x="12" y="27" width="1" height="1" fill="#8fcf5a"/><rect x="13" y="27" width="2" height="1" fill="#4f9b3a"/><rect x="15" y="27" width="1" height="1" fill="#2f6b25"/><rect x="16" y="27" width="2" height="1" fill="#1b1424"/><rect x="18" y="27" width="3" height="1" fill="#4f9b3a"/><rect x="21" y="27" width="1" height="1" fill="#2f6b25"/><rect x="22" y="27" width="1" height="1" fill="#1b1424"/><rect x="9" y="28" width="1" height="1" fill="#1b1424"/><rect x="10" y="28" width="2" height="1" fill="#4f9b3a"/><rect x="12" y="28" width="1" height="1" fill="#8fcf5a"/><rect x="13" y="28" width="2" height="1" fill="#4f9b3a"/><rect x="15" y="28" width="1" height="1" fill="#2f6b25"/><rect x="16" y="28" width="5" height="1" fill="#4f9b3a"/><rect x="21" y="28" width="1" height="1" fill="#2f6b25"/><rect x="22" y="28" width="1" height="1" fill="#1b1424"/><rect x="9" y="29" width="1" height="1" fill="#1b1424"/><rect x="10" y="29" width="2" height="1" fill="#4f9b3a"/><rect x="12" y="29" width="1" height="1" fill="#8fcf5a"/><rect x="13" y="29" width="2" height="1" fill="#4f9b3a"/><rect x="15" y="29" width="1" height="1" fill="#2f6b25"/><rect x="16" y="29" width="5" height="1" fill="#4f9b3a"/><rect x="21" y="29" width="1" height="1" fill="#2f6b25"/><rect x="22" y="29" width="1" height="1" fill="#1b1424"/><rect x="9" y="30" width="1" height="1" fill="#1b1424"/><rect x="10" y="30" width="2" height="1" fill="#4f9b3a"/><rect x="12" y="30" width="1" height="1" fill="#8fcf5a"/><rect x="13" y="30" width="2" height="1" fill="#4f9b3a"/><rect x="15" y="30" width="1" height="1" fill="#2f6b25"/><rect x="16" y="30" width="5" height="1" fill="#4f9b3a"/><rect x="21" y="30" width="1" height="1" fill="#1b1424"/><rect x="9" y="31" width="1" height="1" fill="#1b1424"/><rect x="10" y="31" width="2" height="1" fill="#4f9b3a"/><rect x="12" y="31" width="1" height="1" fill="#8fcf5a"/><rect x="13" y="31" width="2" height="1" fill="#4f9b3a"/><rect x="15" y="31" width="1" height="1" fill="#2f6b25"/><rect x="16" y="31" width="5" height="1" fill="#4f9b3a"/><rect x="21" y="31" width="1" height="1" fill="#1b1424"/><rect x="9" y="32" width="1" height="1" fill="#1b1424"/><rect x="10" y="32" width="2" height="1" fill="#4f9b3a"/><rect x="12" y="32" width="1" height="1" fill="#8fcf5a"/><rect x="13" y="32" width="2" height="1" fill="#4f9b3a"/><rect x="15" y="32" width="1" height="1" fill="#2f6b25"/><rect x="16" y="32" width="5" height="1" fill="#1b1424"/><rect x="9" y="33" width="1" height="1" fill="#1b1424"/><rect x="10" y="33" width="2" height="1" fill="#4f9b3a"/><rect x="12" y="33" width="1" height="1" fill="#8fcf5a"/><rect x="13" y="33" width="2" height="1" fill="#4f9b3a"/><rect x="15" y="33" width="1" height="1" fill="#2f6b25"/><rect x="16" y="33" width="1" height="1" fill="#1b1424"/><rect x="9" y="34" width="1" height="1" fill="#1b1424"/><rect x="10" y="34" width="2" height="1" fill="#4f9b3a"/><rect x="12" y="34" width="1" height="1" fill="#8fcf5a"/><rect x="13" y="34" width="2" height="1" fill="#4f9b3a"/><rect x="15" y="34" width="1" height="1" fill="#2f6b25"/><rect x="16" y="34" width="1" height="1" fill="#1b1424"/><rect x="9" y="35" width="1" height="1" fill="#1b1424"/><rect x="10" y="35" width="2" height="1" fill="#4f9b3a"/><rect x="12" y="35" width="1" height="1" fill="#8fcf5a"/><rect x="13" y="35" width="2" height="1" fill="#4f9b3a"/><rect x="15" y="35" width="1" height="1" fill="#2f6b25"/><rect x="16" y="35" width="1" height="1" fill="#1b1424"/><rect x="9" y="36" width="1" height="1" fill="#1b1424"/><rect x="10" y="36" width="2" height="1" fill="#4f9b3a"/><rect x="12" y="36" width="1" height="1" fill="#8fcf5a"/><rect x="13" y="36" width="2" height="1" fill="#4f9b3a"/><rect x="15" y="36" width="1" height="1" fill="#2f6b25"/><rect x="16" y="36" width="1" height="1" fill="#1b1424"/><rect x="9" y="37" width="1" height="1" fill="#1b1424"/><rect x="10" y="37" width="2" height="1" fill="#4f9b3a"/><rect x="12" y="37" width="1" height="1" fill="#8fcf5a"/><rect x="13" y="37" width="2" height="1" fill="#4f9b3a"/><rect x="15" y="37" width="1" height="1" fill="#2f6b25"/><rect x="16" y="37" width="1" height="1" fill="#1b1424"/><rect x="9" y="38" width="1" height="1" fill="#1b1424"/><rect x="10" y="38" width="2" height="1" fill="#4f9b3a"/><rect x="12" y="38" width="1" height="1" fill="#8fcf5a"/><rect x="13" y="38" width="2" height="1" fill="#4f9b3a"/><rect x="15" y="38" width="1" height="1" fill="#2f6b25"/><rect x="16" y="38" width="1" height="1" fill="#1b1424"/><rect x="9" y="39" width="1" height="1" fill="#1b1424"/><rect x="10" y="39" width="2" height="1" fill="#4f9b3a"/><rect x="12" y="39" width="1" height="1" fill="#8fcf5a"/><rect x="13" y="39" width="2" height="1" fill="#4f9b3a"/><rect x="15" y="39" width="1" height="1" fill="#2f6b25"/><rect x="16" y="39" width="1" height="1" fill="#1b1424"/><rect x="9" y="40" width="1" height="1" fill="#1b1424"/><rect x="10" y="40" width="2" height="1" fill="#4f9b3a"/><rect x="12" y="40" width="1" height="1" fill="#8fcf5a"/><rect x="13" y="40" width="2" height="1" fill="#4f9b3a"/><rect x="15" y="40" width="1" height="1" fill="#2f6b25"/><rect x="16" y="40" width="1" height="1" fill="#1b1424"/><rect x="9" y="41" width="1" height="1" fill="#1b1424"/><rect x="10" y="41" width="2" height="1" fill="#4f9b3a"/><rect x="12" y="41" width="1" height="1" fill="#8fcf5a"/><rect x="13" y="41" width="2" height="1" fill="#4f9b3a"/><rect x="15" y="41" width="1" height="1" fill="#2f6b25"/><rect x="16" y="41" width="1" height="1" fill="#1b1424"/><rect x="9" y="42" width="1" height="1" fill="#1b1424"/><rect x="10" y="42" width="2" height="1" fill="#4f9b3a"/><rect x="12" y="42" width="1" height="1" fill="#8fcf5a"/><rect x="13" y="42" width="2" height="1" fill="#4f9b3a"/><rect x="15" y="42" width="1" height="1" fill="#2f6b25"/><rect x="16" y="42" width="1" height="1" fill="#1b1424"/><rect x="9" y="43" width="1" height="1" fill="#1b1424"/><rect x="10" y="43" width="2" height="1" fill="#4f9b3a"/><rect x="12" y="43" width="1" height="1" fill="#8fcf5a"/><rect x="13" y="43" width="2" height="1" fill="#4f9b3a"/><rect x="15" y="43" width="1" height="1" fill="#2f6b25"/><rect x="16" y="43" width="1" height="1" fill="#1b1424"/><rect x="9" y="44" width="1" height="1" fill="#1b1424"/><rect x="10" y="44" width="2" height="1" fill="#4f9b3a"/><rect x="12" y="44" width="1" height="1" fill="#8fcf5a"/><rect x="13" y="44" width="2" height="1" fill="#4f9b3a"/><rect x="15" y="44" width="1" height="1" fill="#2f6b25"/><rect x="16" y="44" width="1" height="1" fill="#1b1424"/><rect x="9" y="45" width="1" height="1" fill="#1b1424"/><rect x="10" y="45" width="2" height="1" fill="#4f9b3a"/><rect x="12" y="45" width="1" height="1" fill="#8fcf5a"/><rect x="13" y="45" width="2" height="1" fill="#4f9b3a"/><rect x="15" y="45" width="1" height="1" fill="#2f6b25"/><rect x="16" y="45" width="1" height="1" fill="#1b1424"/><rect x="9" y="46" width="1" height="1" fill="#1b1424"/><rect x="10" y="46" width="2" height="1" fill="#4f9b3a"/><rect x="12" y="46" width="1" height="1" fill="#8fcf5a"/><rect x="13" y="46" width="2" height="1" fill="#4f9b3a"/><rect x="15" y="46" width="1" height="1" fill="#2f6b25"/><rect x="16" y="46" width="1" height="1" fill="#1b1424"/><rect x="9" y="47" width="1" height="1" fill="#1b1424"/><rect x="10" y="47" width="2" height="1" fill="#4f9b3a"/><rect x="12" y="47" width="1" height="1" fill="#8fcf5a"/><rect x="13" y="47" width="2" height="1" fill="#4f9b3a"/><rect x="15" y="47" width="1" height="1" fill="#2f6b25"/><rect x="16" y="47" width="1" height="1" fill="#1b1424"/><rect x="9" y="48" width="1" height="1" fill="#1b1424"/><rect x="10" y="48" width="2" height="1" fill="#4f9b3a"/><rect x="12" y="48" width="1" height="1" fill="#8fcf5a"/><rect x="13" y="48" width="2" height="1" fill="#4f9b3a"/><rect x="15" y="48" width="1" height="1" fill="#2f6b25"/><rect x="16" y="48" width="1" height="1" fill="#1b1424"/><rect x="9" y="49" width="1" height="1" fill="#1b1424"/><rect x="10" y="49" width="2" height="1" fill="#4f9b3a"/><rect x="12" y="49" width="1" height="1" fill="#8fcf5a"/><rect x="13" y="49" width="2" height="1" fill="#4f9b3a"/><rect x="15" y="49" width="1" height="1" fill="#2f6b25"/><rect x="16" y="49" width="1" height="1" fill="#1b1424"/></svg>
