<svg xmlns="http://www.w3.org/2000/svg" viewBox="0 0 20 14" width="20" height="14" shape-rendering="crispEdges" aria-hidden="true"><rect x="5" y="0" width="1" height="1" fill="#1b1424"/><rect x="6" y="0" width="9" height="1" fill="#4f9b3a"/><rect x="15" y="0" width="1" height="1" fill="#1b1424"/><rect x="4" y="1" width="1" height="1" fill="#1b1424"/><rect x="5" y="1" width="7" height="1" fill="#4f9b3a"/><rect x="12" y="1" width="1" height="1" fill="#8fcf5a"/><rect x="13" y="1" width="3" height="1" fill="#4f9b3a"/><rect x="16" y="1" width="1" height="1" fill="#1b1424"/><rect x="4" y="2" width="1" height="1" fill="#1b1424"/><rect x="5" y="2" width="1" height="1" fill="#4f9b3a"/><rect x="6" y="2" width="1" height="1" fill="#8fcf5a"/><rect x="7" y="2" width="9" height="1" fill="#4f9b3a"/><rect x="16" y="2" width="1" height="1" fill="#1b1424"/><rect x="3" y="3" width="1" height="1" fill="#1b1424"/><rect x="4" y="3" width="5" height="1" fill="#4f9b3a"/><rect x="9" y="3" width="1" height="1" fill="#ff3b3b"/><rect x="10" y="3" width="7" height="1" fill="#4f9b3a"/><rect x="17" y="3" width="1" height="1" fill="#1b1424"/><rect x="3" y="4" width="1" height="1" fill="#1b1424"/><rect x="4" y="4" width="10" height="1" fill="#4f9b3a"/><rect x="14" y="4" width="1" height="1" fill="#8fcf5a"/><rect x="15" y="4" width="2" height="1" fill="#4f9b3a"/><rect x="17" y="4" width="1" height="1" fill="#1b1424"/><rect x="1" y="5" width="3" height="1" fill="#1b1424"/><rect x="4" y="5" width="13" height="1" fill="#4f9b3a"/><rect x="17" y="5" width="2" height="1" fill="#1b1424"/><rect x="0" y="6" width="1" height="1" fill="#1b1424"/><rect x="1" y="6" width="18" height="1" fill="#f6f1e7"/><rect x="19" y="6" width="1" height="1" fill="#1b1424"/><rect x="0" y="7" width="1" height="1" fill="#1b1424"/><rect x="1" y="7" width="18" height="1" fill="#f6f1e7"/><rect x="19" y="7" width="1" height="1" fill="#1b1424"/><rect x="1" y="8" width="2" height="1" fill="#1b1424"/><rect x="3" y="8" width="14" height="1" fill="#f6f1e7"/><rect x="17" y="8" width="2" height="1" fill="#1b1424"/><rect x="2" y="9" width="1" height="1" fill="#1b1424"/><rect x="3" y="9" width="14" height="1" fill="#f6f1e7"/><rect x="17" y="9" width="1" height="1" fill="#1b1424"/><rect x="2" y="10" width="1" height="1" fill="#1b1424"/><rect x="3" y="10" width="14" height="1" fill="#f6f1e7"/><rect x="17" y="10" width="1" height="1" fill="#1b1424"/><rect x="3" y="11" width="2" height="1" fill="#1b1424"/><rect x="5" y="11" width="10" height="1" fill="#cfc8bb"/><rect x="15" y="11" width="2" height="1" fill="#1b1424"/><rect x="4" y="12" width="1" height="1" fill="#1b1424"/><rect x="5" y="12" width="10" height="1" fill="#cfc8bb"/><rect x="15" y="12" width="1" height="1" fill="#1b1424"/><rect x="5" y="13" width="10" height="1" fill="#1b1424"/></svg>
